<svg xmlns="http://www.w3.org/2000/svg" xmlns:xlink="http://www.w3.org/1999/xlink" id="visual" version="1.1" viewBox="0 0 1920 299"><path d="M0 220L40 218.5C80 217 160 214 240 224.5C320 235 400 259 480 268.2C560 277.3 640 271.7 720 271.2C800 270.7 880 275.3 960 274.3C1040 273.3 1120 266.7 1200 266.5C1280 266.3 1360 272.7 1440 271.5C1520 270.3 1600 261.7 1680 265C1760 268.3 1840 283.7 1880 291.3L1920 299L1920 0L1880 0C1840 0 1760 0 1680 0C1600 0 1520 0 1440 0C1360 0 1280 0 1200 0C1120 0 1040 0 960 0C880 0 800 0 720 0C640 0 560 0 480 0C400 0 320 0 240 0C160 0 80 0 40 0L0 0Z" fill="#d4f1ef"/><path d="M0 145L40 143.7C80 142.3 160 139.7 240 141.5C320 143.3 400 149.7 480 159.2C560 168.7 640 181.3 720 180.8C800 180.3 880 166.7 960 159.8C1040 153 1120 153 1200 161C1280 169 1360 185 1440 193.2C1520 201.3 1600 201.7 1680 198C1760 194.3 1840 186.7 1880 182.8L1920 179L1920 0L1880 0C1840 0 1760 0 1680 0C1600 0 1520 0 1440 0C1360 0 1280 0 1200 0C1120 0 1040 0 960 0C880 0 800 0 720 0C640 0 560 0 480 0C400 0 320 0 240 0C160 0 80 0 40 0L0 0Z" fill="#90dcd5"/><path d="M0 130L40 123.5C80 117 160 104 240 96.3C320 88.7 400 86.3 480 85.8C560 85.3 640 86.7 720 95.5C800 104.3 880 120.7 960 120.7C1040 120.7 1120 104.3 1200 98.7C1280 93 1360 98 1440 104.7C1520 111.3 1600 119.7 1680 115.3C1760 111 1840 94 1880 85.5L1920 77L1920 0L1880 0C1840 0 1760 0 1680 0C1600 0 1520 0 1440 0C1360 0 1280 0 1200 0C1120 0 1040 0 960 0C880 0 800 0 720 0C640 0 560 0 480 0C400 0 320 0 240 0C160 0 80 0 40 0L0 0Z" fill="#34c6b9"/></svg>