<svg id="visual" viewBox="0 0 1920 1080" width="1920" height="1080" xmlns="http://www.w3.org/2000/svg" xmlns:xlink="http://www.w3.org/1999/xlink" version="1.1"><path d="M0 858L40 859.5C80 861 160 864 240 853.5C320 843 400 819 480 809.8C560 800.7 640 806.3 720 806.8C800 807.3 880 802.7 960 803.7C1040 804.7 1120 811.3 1200 811.5C1280 811.7 1360 805.3 1440 806.5C1520 807.7 1600 816.3 1680 813C1760 809.7 1840 794.3 1880 786.7L1920 779L1920 1081L1880 1081C1840 1081 1760 1081 1680 1081C1600 1081 1520 1081 1440 1081C1360 1081 1280 1081 1200 1081C1120 1081 1040 1081 960 1081C880 1081 800 1081 720 1081C640 1081 560 1081 480 1081C400 1081 320 1081 240 1081C160 1081 80 1081 40 1081L0 1081Z" fill="#d4f1ef"></path><path d="M0 933L40 934.3C80 935.7 160 938.3 240 936.5C320 934.7 400 928.3 480 918.8C560 909.3 640 896.7 720 897.2C800 897.7 880 911.3 960 918.2C1040 925 1120 925 1200 917C1280 909 1360 893 1440 884.8C1520 876.7 1600 876.3 1680 880C1760 883.7 1840 891.3 1880 895.2L1920 899L1920 1081L1880 1081C1840 1081 1760 1081 1680 1081C1600 1081 1520 1081 1440 1081C1360 1081 1280 1081 1200 1081C1120 1081 1040 1081 960 1081C880 1081 800 1081 720 1081C640 1081 560 1081 480 1081C400 1081 320 1081 240 1081C160 1081 80 1081 40 1081L0 1081Z" fill="#90dcd5"></path><path d="M0 948L40 954.5C80 961 160 974 240 981.7C320 989.3 400 991.7 480 992.2C560 992.7 640 991.3 720 982.5C800 973.7 880 957.3 960 957.3C1040 957.3 1120 973.7 1200 979.3C1280 985 1360 980 1440 973.3C1520 966.7 1600 958.3 1680 962.7C1760 967 1840 984 1880 992.5L1920 1001L1920 1081L1880 1081C1840 1081 1760 1081 1680 1081C1600 1081 1520 1081 1440 1081C1360 1081 1280 1081 1200 1081C1120 1081 1040 1081 960 1081C880 1081 800 1081 720 1081C640 1081 560 1081 480 1081C400 1081 320 1081 240 1081C160 1081 80 1081 40 1081L0 1081Z" fill="#34c6b9"></path></svg>