<svg id="visual" viewBox="0 0 1920 1080" width="1920" height="1080" xmlns="http://www.w3.org/2000/svg" xmlns:xlink="http://www.w3.org/1999/xlink" version="1.1"><path d="M0 967L80 963C160 959 320 951 480 951.8C640 952.7 800 962.3 960 966.7C1120 971 1280 970 1440 967.7C1600 965.3 1760 961.7 1840 959.8L1920 958L1920 1081L1840 1081C1760 1081 1600 1081 1440 1081C1280 1081 1120 1081 960 1081C800 1081 640 1081 480 1081C320 1081 160 1081 80 1081L0 1081Z" fill="#e5f2fc"></path><path d="M0 965L80 974.2C160 983.3 320 1001.7 480 997.7C640 993.7 800 967.3 960 958C1120 948.7 1280 956.3 1440 958.3C1600 960.3 1760 956.7 1840 954.8L1920 953L1920 1081L1840 1081C1760 1081 1600 1081 1440 1081C1280 1081 1120 1081 960 1081C800 1081 640 1081 480 1081C320 1081 160 1081 80 1081L0 1081Z" fill="#d3eafd"></path><path d="M0 1053L80 1053.7C160 1054.3 320 1055.7 480 1051.3C640 1047 800 1037 960 1028.3C1120 1019.7 1280 1012.3 1440 1015.5C1600 1018.7 1760 1032.3 1840 1039.2L1920 1046L1920 1081L1840 1081C1760 1081 1600 1081 1440 1081C1280 1081 1120 1081 960 1081C800 1081 640 1081 480 1081C320 1081 160 1081 80 1081L0 1081Z" fill="#c2e2fe"></path></svg>